<?xml version="1.0" encoding="UTF-8"?>
<!DOCTYPE svg PUBLIC "-//W3C//DTD SVG 1.1//EN" "http://www.w3.org/Graphics/SVG/1.1/DTD/svg11.dtd">
<svg xmlns="http://www.w3.org/2000/svg" version="1.1" width="32px" height="32px" style="shape-rendering:geometricPrecision; text-rendering:geometricPrecision; image-rendering:optimizeQuality; fill-rule:evenodd; clip-rule:evenodd" xmlns:xlink="http://www.w3.org/1999/xlink">
<g><path style="opacity:0.645" fill="#020609" d="M 0.5,3.5 C 10.5,3.5 20.5,3.5 30.5,3.5C 30.5,10.5 30.5,17.5 30.5,24.5C 26.8333,24.5 23.1667,24.5 19.5,24.5C 19.4802,26.143 20.1468,27.4763 21.5,28.5C 17.5,29.8333 13.5,29.8333 9.5,28.5C 10.8532,27.4763 11.5198,26.143 11.5,24.5C 7.83333,24.5 4.16667,24.5 0.5,24.5C 0.5,17.5 0.5,10.5 0.5,3.5 Z"/></g>
<g><path style="opacity:1" fill="#367db5" d="M 29.5,22.5 C 28.8333,22.5 28.5,22.1667 28.5,21.5C 28.5,16.5 28.5,11.5 28.5,6.5C 19.8333,6.5 11.1667,6.5 2.5,6.5C 2.5,11.5 2.5,16.5 2.5,21.5C 2.5,22.1667 2.16667,22.5 1.5,22.5C 1.5,16.8333 1.5,11.1667 1.5,5.5C 10.8333,5.5 20.1667,5.5 29.5,5.5C 29.5,11.1667 29.5,16.8333 29.5,22.5 Z"/></g>
<g><path style="opacity:1" fill="#151a1d" d="M 28.5,21.5 C 27.8333,21.5 27.5,21.1667 27.5,20.5C 27.5,16.1667 27.5,11.8333 27.5,7.5C 19.5,7.5 11.5,7.5 3.5,7.5C 3.5,12.1667 3.5,16.8333 3.5,21.5C 3.16667,21.5 2.83333,21.5 2.5,21.5C 2.5,16.5 2.5,11.5 2.5,6.5C 11.1667,6.5 19.8333,6.5 28.5,6.5C 28.5,11.5 28.5,16.5 28.5,21.5 Z"/></g>
<g><path style="opacity:1" fill="#bae2f5" d="M 27.5,20.5 C 19.4583,20.264 11.4583,20.5973 3.5,21.5C 3.5,16.8333 3.5,12.1667 3.5,7.5C 11.5,7.5 19.5,7.5 27.5,7.5C 27.5,11.8333 27.5,16.1667 27.5,20.5 Z"/></g>
<g><path style="opacity:1" fill="#91b0bf" d="M 17.5,10.5 C 17.5,11.5 17.5,12.5 17.5,13.5C 16.1667,13.5 14.8333,13.5 13.5,13.5C 13.5,12.5 13.5,11.5 13.5,10.5C 14.8333,9.16667 16.1667,9.16667 17.5,10.5 Z"/></g>
<g><path style="opacity:1" fill="#181d20" d="M 13.5,10.5 C 13.5,11.5 13.5,12.5 13.5,13.5C 14.8333,13.5 16.1667,13.5 17.5,13.5C 17.5,12.5 17.5,11.5 17.5,10.5C 18.6199,16.4745 18.6199,17.8079 17.5,14.5C 16.1667,14.5 14.8333,14.5 13.5,14.5C 12.3801,17.8079 12.3801,16.4745 13.5,10.5 Z"/></g>
<g><path style="opacity:1" fill="#272f33" d="M 24.5,10.5 C 25.9118,12.2303 25.5785,13.7303 23.5,15C 24.7717,16.246 25.105,17.4126 24.5,18.5C 23.5,17.1667 22.5,15.8333 21.5,14.5C 20.7189,15.7287 20.2189,17.062 20,18.5C 19.502,15.5184 19.3354,12.5184 19.5,9.5C 21.4147,9.21552 23.0813,9.54885 24.5,10.5 Z"/></g>
<g><path style="opacity:1" fill="#afd4e6" d="M 24.5,10.5 C 24.5,11.5 24.5,12.5 24.5,13.5C 23.1667,13.5 21.8333,13.5 20.5,13.5C 20.5,12.5 20.5,11.5 20.5,10.5C 21.8333,10.5 23.1667,10.5 24.5,10.5 Z"/></g>
<g><path style="opacity:1" fill="#46555c" d="M 5.5,9.5 C 6.93476,10.7898 7.93476,12.4565 8.5,14.5C 9.4274,12.8872 10.2607,11.2205 11,9.5C 9.5144,21.4552 7.68107,21.4552 5.5,9.5 Z"/></g>
<g><path style="opacity:1" fill="#355b7c" d="M 27.5,20.5 C 27.5,21.1667 27.8333,21.5 28.5,21.5C 28.5,22.1667 28.8333,22.5 29.5,22.5C 25.7016,23.4834 21.7016,23.8168 17.5,23.5C 17.5,25.1667 17.5,26.8333 17.5,28.5C 16.1667,28.5 14.8333,28.5 13.5,28.5C 13.5,26.8333 13.5,25.1667 13.5,23.5C 9.29841,23.8168 5.29841,23.4834 1.5,22.5C 2.16667,22.5 2.5,22.1667 2.5,21.5C 2.83333,21.5 3.16667,21.5 3.5,21.5C 11.4583,20.5973 19.4583,20.264 27.5,20.5 Z"/></g>
</svg>
