<?xml version="1.0" encoding="UTF-8"?>
<!DOCTYPE svg PUBLIC "-//W3C//DTD SVG 1.1//EN" "http://www.w3.org/Graphics/SVG/1.1/DTD/svg11.dtd">
<svg xmlns="http://www.w3.org/2000/svg" version="1.1" width="32px" height="32px" style="shape-rendering:geometricPrecision; text-rendering:geometricPrecision; image-rendering:optimizeQuality; fill-rule:evenodd; clip-rule:evenodd" xmlns:xlink="http://www.w3.org/1999/xlink">
<g><path style="opacity:1" fill="#789fd9" d="M 21.5,3.5 C 23.1667,4.5 24.5,5.83333 25.5,7.5C 24.3991,8.59832 23.0657,8.76498 21.5,8C 20.1991,6.38448 20.1991,4.88448 21.5,3.5 Z"/></g>
<g><path style="opacity:0.972" fill="#cadaf1" d="M 8.5,6.5 C 10.8333,6.5 13.1667,6.5 15.5,6.5C 15.2322,8.09903 15.5655,9.43236 16.5,10.5C 17.8333,11.8333 19.1667,11.8333 20.5,10.5C 21.4861,14.97 21.8195,19.6367 21.5,24.5C 21.67,25.8221 21.3366,26.9887 20.5,28C 15.8333,28.6667 11.1667,28.6667 6.5,28C 6,27.5 5.5,27 5,26.5C 4.33333,20.5 4.33333,14.5 5,8.5C 5.70956,7.02674 6.87623,6.36007 8.5,6.5 Z"/></g>
<g><path style="opacity:1" fill="#779ad3" d="M 20.5,10.5 C 19.1667,11.8333 17.8333,11.8333 16.5,10.5C 17.2927,6.83455 18.626,6.83455 20.5,10.5 Z"/></g>
<g><path style="opacity:0.912" fill="#c3d4ed" d="M 21.5,3.5 C 20.1991,4.88448 20.1991,6.38448 21.5,8C 23.0657,8.76498 24.3991,8.59832 25.5,7.5C 26.6497,12.3158 26.8163,17.3158 26,22.5C 24.951,24.1066 23.451,24.7733 21.5,24.5C 21.8195,19.6367 21.4861,14.97 20.5,10.5C 18.626,6.83455 17.2927,6.83455 16.5,10.5C 15.5655,9.43236 15.2322,8.09903 15.5,6.5C 13.1667,6.5 10.8333,6.5 8.5,6.5C 9.02832,5.27935 9.69499,4.11268 10.5,3C 14.3575,2.19007 18.0242,2.35673 21.5,3.5 Z"/></g>
<g><path style="opacity:1" fill="#8a809f" d="M 11.5,19.5 C 12.9778,19.238 14.3112,19.5713 15.5,20.5C 13.5365,23.1939 12.2032,22.8606 11.5,19.5 Z"/></g>
</svg>
