<?xml version="1.0" encoding="UTF-8"?>
<svg version="1.1" xmlns="http://www.w3.org/2000/svg" width="336" height="337">
<path d="M0 0 C16.5 0 33 0 50 0 C51.125 7.875 51.125 7.875 51.08229065 11.75205994 C51.07525116 12.62834045 51.06821167 13.50462097 51.06095886 14.40745544 C51.04801285 15.34541458 51.03506683 16.28337372 51.02172852 17.24975586 C51.01212097 18.25539581 51.00251343 19.26103577 50.99261475 20.29714966 C50.95977714 23.60312236 50.91938718 26.90895655 50.87890625 30.21484375 C50.85459023 32.51411967 50.83074742 34.81340063 50.80735779 37.11268616 C50.74466435 43.15102917 50.67555619 49.18928227 50.60510254 55.22753906 C50.53428569 61.39448976 50.46954872 67.56150398 50.40429688 73.72851562 C50.27547462 85.81908023 50.13987409 97.90955856 50 110 C56.25840331 104.69752535 62.09689092 99.04573487 67.88842773 93.2409668 C68.85328442 92.27746825 69.81835303 91.31418189 70.78361511 90.35108948 C73.38049429 87.75873178 75.9742458 85.1632665 78.56727099 82.56705451 C81.28789581 79.84388297 84.01097651 77.12316894 86.73365784 74.40205383 C91.29713716 69.84038762 95.85851732 65.27663037 100.41870117 60.71166992 C105.69288269 55.43202783 110.97068337 50.15602417 116.25033993 44.88185757 C120.79074824 40.34598155 125.32921221 35.80816699 129.86604458 31.26871425 C132.57285931 28.56033991 135.28034674 25.85264735 137.9895916 23.14670372 C140.53062122 20.60855514 143.06920666 18.0679874 145.6058979 15.52550316 C146.98401068 14.14543122 148.36459515 12.76782886 149.74523926 11.39028931 C150.55963974 10.573069 151.37404022 9.75584869 152.21311951 8.91386414 C152.92449286 8.20211375 153.63586622 7.49036337 154.36879635 6.75704479 C156.07486145 5.08427679 156.07486145 5.08427679 157 3 C157.66 3 158.32 3 159 3 C159 2.34 159 1.68 159 1 C161.87744268 -0.43872134 164.34565922 -0.11937153 167.56103516 -0.11352539 C168.23432358 -0.11367142 168.907612 -0.11381744 169.6013031 -0.1139679 C171.83058881 -0.11327027 174.05979135 -0.10548489 176.2890625 -0.09765625 C177.83320063 -0.09579154 179.37733934 -0.09436789 180.92147827 -0.09336853 C184.98870472 -0.08954754 189.05589555 -0.07972082 193.12310791 -0.06866455 C197.2721712 -0.05844144 201.42124025 -0.05386898 205.5703125 -0.04882812 C213.71355803 -0.03809819 221.85677458 -0.02102677 230 0 C229.22207969 3.62784079 228.12258145 5.25280888 225.47265625 7.890625 C224.40821289 8.95410156 224.40821289 8.95410156 223.32226562 10.0390625 C222.57654297 10.76867187 221.83082031 11.49828125 221.0625 12.25 C220.32064453 12.99507812 219.57878906 13.74015625 218.81445312 14.5078125 C213.26694139 20 213.26694139 20 211 20 C210.6596875 20.86625 210.6596875 20.86625 210.3125 21.75 C208.67083893 24.56427613 206.56440947 26.02737733 204 28 C203.67 28.66 203.34 29.32 203 30 C202.34 30 201.68 30 201 30 C201 30.66 201 31.32 201 32 C199.125 34.125 199.125 34.125 197 36 C196.34 36 195.68 36 195 36 C195 36.66 195 37.32 195 38 C194.34 38 193.68 38 193 38 C193 38.66 193 39.32 193 40 C191.64453125 41.33203125 191.64453125 41.33203125 189.8125 42.8125 C186.67051726 45.3657888 183.85348723 48.12739739 181 51 C164 68 147 85 130 102 C129.11606567 102.88780151 128.23213135 103.77560303 127.32141113 104.69030762 C125.80579189 106.19827584 124.2617727 107.67837104 122.6875 109.125 C120.66551763 110.95122132 120.66551763 110.95122132 121 114 C121.66 114.33 122.32 114.66 123 115 C123 115.66 123 116.32 123 117 C123.66 117 124.32 117 125 117 C126.19921875 118.22265625 126.19921875 118.22265625 127.6875 120.0625 C131.44225657 124.48265647 135.46578123 128.58778472 139.5625 132.6875 C140.19953857 133.32888916 140.83657715 133.97027832 141.49291992 134.63110352 C144.38478454 137.5147324 147.27613556 140.27751025 150.46484375 142.83203125 C151.71974609 143.90517578 151.71974609 143.90517578 153 145 C153 145.66 153 146.32 153 147 C153.66 147 154.32 147 155 147 C155 147.66 155 148.32 155 149 C155.66 149 156.32 149 157 149 C157 149.66 157 150.32 157 151 C157.66 151 158.32 151 159 151 C159 151.66 159 152.32 159 153 C159.66 153 160.32 153 161 153 C161 153.66 161 154.32 161 155 C161.66 155 162.32 155 163 155 C163 155.66 163 156.32 163 157 C163.66 157 164.32 157 165 157 C165 157.66 165 158.32 165 159 C165.66 159 166.32 159 167 159 C167 159.66 167 160.32 167 161 C167.66 161 168.32 161 169 161 C169 161.66 169 162.32 169 163 C169.66 163 170.32 163 171 163 C171 163.66 171 164.32 171 165 C171.66 165 172.32 165 173 165 C173 165.66 173 166.32 173 167 C173.66 167 174.32 167 175 167 C175 167.66 175 168.32 175 169 C175.66 169 176.32 169 177 169 C177 169.66 177 170.32 177 171 C177.66 171 178.32 171 179 171 C179 171.66 179 172.32 179 173 C179.66 173 180.32 173 181 173 C181 173.66 181 174.32 181 175 C181.66 175 182.32 175 183 175 C183 175.66 183 176.32 183 177 C183.66 177 184.32 177 185 177 C185 177.66 185 178.32 185 179 C185.66 179 186.32 179 187 179 C187 179.66 187 180.32 187 181 C187.66 181 188.32 181 189 181 C190.55078125 182.609375 190.55078125 182.609375 192.3125 184.75 C195.00233417 187.92333742 197.7418814 190.41021342 201 193 C201.95616189 194.08804629 202.89203861 195.19408992 203.8125 196.3125 C205.87653334 198.7862284 207.97398492 200.92574163 210.4375 203 C214.80938817 206.73022161 218.90785382 210.71868755 223 214.75 C223.68376709 215.41257812 224.36753418 216.07515625 225.07202148 216.7578125 C225.70825439 217.38945312 226.3444873 218.02109375 227 218.671875 C227.5775 219.2400293 228.155 219.80818359 228.75 220.39355469 C230 222 230 222 230 225 C221.14190024 225.16262819 212.28431902 225.28678787 203.42504883 225.3626852 C199.31065922 225.39912414 195.19729539 225.44849786 191.08349609 225.52807617 C187.10875465 225.60447797 183.13499582 225.64606046 179.15957642 225.6641407 C177.64768005 225.67701442 176.13583383 225.70215522 174.62435913 225.7401104 C172.49581344 225.79140553 170.37125772 225.79790589 168.2421875 225.79467773 C167.0341748 225.81022202 165.82616211 225.8257663 164.58154297 225.84178162 C159.38375435 224.62012856 156.71601995 221.70647668 153 218 C152.22806808 217.25208097 151.45613617 216.50416193 150.66081238 215.73357868 C147.99598512 213.13384208 145.36034962 210.50690269 142.72851562 207.8737793 C141.72261894 206.87088121 140.71651977 205.86818617 139.7102356 204.86567688 C137.00177061 202.1659743 134.2964887 199.4631045 131.59208107 196.75933814 C129.90141835 195.06938914 128.2100444 193.38015534 126.51841736 191.69117165 C120.61555253 185.797527 114.71524444 179.90133687 108.81738281 174.00268555 C103.31865329 168.5033527 97.81434141 163.00965085 92.30744791 157.51849431 C87.5734067 152.7975007 82.8432003 148.07268827 78.11599874 143.34484607 C75.29480178 140.52339375 72.47206238 137.70352738 69.64546204 134.88748741 C66.99475648 132.24641863 64.34883508 129.60065129 61.70660019 126.95110893 C60.73436022 125.97781833 59.76039443 125.00624833 58.78462601 124.03649521 C57.45798441 122.71750737 56.13802912 121.39180436 54.81848145 120.0657196 C54.07668892 119.32447185 53.33489639 118.58322409 52.57062531 117.81951427 C51 116 51 116 51 114 C47.35070904 115.21643032 45.58379149 117.29749117 43 120 C41.80928657 121.19137243 40.61535035 122.37952888 39.41894531 123.56518555 C35.80313281 127.16323653 32.19034427 130.76430733 28.57861328 134.36645508 C27.01992626 135.92007613 25.46034836 137.47280388 23.89990234 139.0246582 C21.64447223 141.26801327 19.3922391 143.51453448 17.140625 145.76171875 C16.43963684 146.45754562 15.73864868 147.1533725 15.01641846 147.87028503 C14.37194763 148.51468033 13.72747681 149.15907562 13.06347656 149.82299805 C12.49453674 150.38971725 11.92559692 150.95643646 11.3394165 151.54032898 C9.89569173 152.97926944 9.89569173 152.97926944 9 155 C8.34 155 7.68 155 7 155 C7 155.66 7 156.32 7 157 C6.34 157 5.68 157 5 157 C5 157.66 5 158.32 5 159 C4.34 159 3.68 159 3 159 C3 159.66 3 160.32 3 161 C2.01 161 1.02 161 0 161 C0 107.87 0 54.74 0 0 Z " fill="#0281C0" transform="translate(52,56)"/>
<path d="M0 0 C12.87 0 25.74 0 39 0 C39 1.98 39 3.96 39 6 C33.72 6 28.44 6 23 6 C23 19.86 23 33.72 23 48 C20.69 48 18.38 48 16 48 C16 34.14 16 20.28 16 6 C10.72 6 5.44 6 0 6 C0 4.02 0 2.04 0 0 Z " fill="#0883C2" transform="translate(87,231)"/>
<path d="M0 0 C2.31 0 4.62 0 7 0 C7 13.86 7 27.72 7 42 C14.59 42 22.18 42 30 42 C30 43.98 30 45.96 30 48 C20.1 48 10.2 48 0 48 C0 32.16 0 16.32 0 0 Z " fill="#0B85C2" transform="translate(53,231)"/>
</svg>
