<?xml version="1.0" encoding="UTF-8"?>
<!DOCTYPE svg PUBLIC "-//W3C//DTD SVG 1.1//EN" "http://www.w3.org/Graphics/SVG/1.1/DTD/svg11.dtd">
<svg xmlns="http://www.w3.org/2000/svg" version="1.1" width="32px" height="32px" style="shape-rendering:geometricPrecision; text-rendering:geometricPrecision; image-rendering:optimizeQuality; fill-rule:evenodd; clip-rule:evenodd" xmlns:xlink="http://www.w3.org/1999/xlink">
<g><path style="opacity:0.917" fill="#c9eae4" d="M 27.5,10.5 C 28.8245,13.7947 27.4911,15.128 23.5,14.5C 23.5,12.5 23.5,10.5 23.5,8.5C 19.5,8.5 15.5,8.5 11.5,8.5C 12.5124,5.14713 14.8458,3.48046 18.5,3.5C 20.5767,3.69221 22.5767,4.19221 24.5,5C 24.9817,6.00836 25.1484,7.17503 25,8.5C 25.9947,9.06594 26.828,9.73261 27.5,10.5 Z"/></g>
<g><path style="opacity:0.851" fill="#c6eae3" d="M 9.5,8.5 C 8.20916,12.6011 8.20916,16.6011 9.5,20.5C 9.15829,21.3382 8.49162,21.6716 7.5,21.5C 7.15829,20.6618 6.49162,20.3284 5.5,20.5C 3.46623,19.4522 2.1329,17.7855 1.5,15.5C 3.91013,12.7488 6.5768,10.4155 9.5,8.5 Z"/></g>
<g><path style="opacity:1" fill="#eaf7f2" d="M 14.5,21.5 C 15.6412,20.661 16.9745,19.9943 18.5,19.5C 19.7733,18.7435 19.7733,18.0768 18.5,17.5C 16.851,15.8252 15.5177,13.8252 14.5,11.5C 14.4469,13.8084 14.1136,16.1417 13.5,18.5C 12.6522,19.625 11.6522,19.625 10.5,18.5C 10.5,15.8333 10.5,13.1667 10.5,10.5C 14.1667,10.5 17.8333,10.5 21.5,10.5C 21.5,14.1667 21.5,17.8333 21.5,21.5C 19.1667,21.5 16.8333,21.5 14.5,21.5 Z"/></g>
<g><path style="opacity:1" fill="#9192a0" d="M 9.5,8.5 C 10.1667,8.5 10.8333,8.5 11.5,8.5C 15.5,8.5 19.5,8.5 23.5,8.5C 23.5,10.5 23.5,12.5 23.5,14.5C 27.4911,15.128 28.8245,13.7947 27.5,10.5C 29.5969,11.8786 29.9302,13.5453 28.5,15.5C 26.8333,15.5 25.1667,15.5 23.5,15.5C 24.3296,22.3334 21.3296,25.0001 14.5,23.5C 14.5,22.8333 14.5,22.1667 14.5,21.5C 16.8333,21.5 19.1667,21.5 21.5,21.5C 21.5,17.8333 21.5,14.1667 21.5,10.5C 17.8333,10.5 14.1667,10.5 10.5,10.5C 10.5,13.1667 10.5,15.8333 10.5,18.5C 10.5,18.8333 10.5,19.1667 10.5,19.5C 9.83333,19.5 9.5,19.8333 9.5,20.5C 8.20916,16.6011 8.20916,12.6011 9.5,8.5 Z"/></g>
<g><path style="opacity:0.88" fill="#caeee8" d="M 28.5,15.5 C 30.2119,18.6423 29.7119,21.3089 27,23.5C 22.496,25.1451 17.8294,26.1451 13,26.5C 10.9919,26.6932 9.49189,26.0265 8.5,24.5C 8.93822,24.5654 9.27155,24.3988 9.5,24C 8.37598,23.7508 7.37598,23.2508 6.5,22.5C 6.62358,21.8933 6.95691,21.56 7.5,21.5C 8.49162,21.6716 9.15829,21.3382 9.5,20.5C 9.5,19.8333 9.83333,19.5 10.5,19.5C 11.209,20.404 12.209,20.7373 13.5,20.5C 13.67,21.8221 13.3366,22.9887 12.5,24C 13.4368,24.6917 14.1034,24.525 14.5,23.5C 21.3296,25.0001 24.3296,22.3334 23.5,15.5C 25.1667,15.5 26.8333,15.5 28.5,15.5 Z"/></g>
<g><path style="opacity:1" fill="#cea456" d="M 18.5,17.5 C 16.7839,17.6287 15.1172,17.962 13.5,18.5C 14.1136,16.1417 14.4469,13.8084 14.5,11.5C 15.5177,13.8252 16.851,15.8252 18.5,17.5 Z"/></g>
<g><path style="opacity:1" fill="#b9c5c1" d="M 18.5,17.5 C 19.7733,18.0768 19.7733,18.7435 18.5,19.5C 16.9745,19.9943 15.6412,20.661 14.5,21.5C 14.5,22.1667 14.5,22.8333 14.5,23.5C 14.1034,24.525 13.4368,24.6917 12.5,24C 13.3366,22.9887 13.67,21.8221 13.5,20.5C 12.209,20.7373 11.209,20.404 10.5,19.5C 10.5,19.1667 10.5,18.8333 10.5,18.5C 11.6522,19.625 12.6522,19.625 13.5,18.5C 15.1172,17.962 16.7839,17.6287 18.5,17.5 Z"/></g>
<g><path style="opacity:0.725" fill="#837f7d" d="M 5.5,20.5 C 6.49162,20.3284 7.15829,20.6618 7.5,21.5C 6.95691,21.56 6.62358,21.8933 6.5,22.5C 7.37598,23.2508 8.37598,23.7508 9.5,24C 9.27155,24.3988 8.93822,24.5654 8.5,24.5C 7.5,24.5 6.5,24.5 5.5,24.5C 5.5,23.1667 5.5,21.8333 5.5,20.5 Z"/></g>
</svg>
