<?xml version="1.0" encoding="UTF-8"?>
<!DOCTYPE svg PUBLIC "-//W3C//DTD SVG 1.1//EN" "http://www.w3.org/Graphics/SVG/1.1/DTD/svg11.dtd">
<svg xmlns="http://www.w3.org/2000/svg" version="1.1" width="32px" height="32px" style="shape-rendering:geometricPrecision; text-rendering:geometricPrecision; image-rendering:optimizeQuality; fill-rule:evenodd; clip-rule:evenodd" xmlns:xlink="http://www.w3.org/1999/xlink">
<g><path style="opacity:0.549" fill="#3d90e1" d="M 23.5,6.5 C 22.0048,6.98869 20.6715,7.65536 19.5,8.5C 17.1667,8.5 14.8333,8.5 12.5,8.5C 12.5,7.83333 12.5,7.16667 12.5,6.5C 14.8579,3.76356 17.8579,2.93023 21.5,4C 22.3805,4.7083 23.0472,5.54163 23.5,6.5 Z"/></g>
<g><path style="opacity:0.776" fill="#acd4f8" d="M 23.5,6.5 C 24.4734,6.98672 25.4734,7.48672 26.5,8C 26.2716,8.39877 25.9382,8.56544 25.5,8.5C 23.6112,9.37989 21.6112,9.37989 19.5,8.5C 20.6715,7.65536 22.0048,6.98869 23.5,6.5 Z"/></g>
<g><path style="opacity:1" fill="#d8d2c7" d="M 12.5,6.5 C 12.5,7.16667 12.5,7.83333 12.5,8.5C 11.8333,8.5 11.1667,8.5 10.5,8.5C 8.80629,10.4376 6.80629,10.7709 4.5,9.5C 4.86273,8.81654 5.19607,8.14987 5.5,7.5C 5.96227,6.12011 6.96227,5.45344 8.5,5.5C 9.84918,5.84572 11.1825,6.17905 12.5,6.5 Z"/></g>
<g><path style="opacity:0.577" fill="#3a99eb" d="M 19.5,8.5 C 21.6112,9.37989 23.6112,9.37989 25.5,8.5C 25.6854,10.1958 26.5187,11.5291 28,12.5C 28.4966,14.8098 28.6633,17.1432 28.5,19.5C 27.2921,18.7659 25.9587,18.4326 24.5,18.5C 23.8333,18.8333 23.1667,19.1667 22.5,19.5C 23.1925,15.2473 22.1925,11.5807 19.5,8.5 Z"/></g>
<g><path style="opacity:1" fill="#83a344" d="M 10.5,8.5 C 11.1667,8.5 11.8333,8.5 12.5,8.5C 14.8333,8.5 17.1667,8.5 19.5,8.5C 22.1925,11.5807 23.1925,15.2473 22.5,19.5C 22.1667,19.5 21.8333,19.5 21.5,19.5C 20.7515,18.469 20.0848,17.3024 19.5,16C 17.1902,15.5034 14.8568,15.3367 12.5,15.5C 12.5,17.1667 12.5,18.8333 12.5,20.5C 15.2788,20.2786 17.9455,20.612 20.5,21.5C 20.6107,22.1174 20.944,22.6174 21.5,23C 17.8484,23.4986 14.1817,23.6653 10.5,23.5C 10.5,18.5 10.5,13.5 10.5,8.5 Z"/></g>
<g><path style="opacity:0.59" fill="#3498f0" d="M 4.5,11.5 C 6.16667,11.5 7.83333,11.5 9.5,11.5C 9.18325,15.7016 9.51658,19.7016 10.5,23.5C 12.3035,24.162 14.3035,24.4954 16.5,24.5C 18.9522,24.4609 20.9522,23.7943 22.5,22.5C 24.5,22.5 26.5,22.5 28.5,22.5C 26.6181,23.7512 24.6181,24.9179 22.5,26C 20.8876,26.7203 19.3876,26.5536 18,25.5C 11.6015,29.2996 7.43483,27.633 5.5,20.5C 7.4846,20.1414 8.15127,19.308 7.5,18C 5.89253,18.0187 4.22586,18.1854 2.5,18.5C 1.6202,15.875 2.28686,13.5416 4.5,11.5 Z"/></g>
<g><path style="opacity:0.906" fill="#707769" d="M 5.5,7.5 C 5.19607,8.14987 4.86273,8.81654 4.5,9.5C 6.80629,10.7709 8.80629,10.4376 10.5,8.5C 10.5,13.5 10.5,18.5 10.5,23.5C 9.51658,19.7016 9.18325,15.7016 9.5,11.5C 7.83333,11.5 6.16667,11.5 4.5,11.5C 3.87605,11.0831 3.54272,10.4164 3.5,9.5C 3.74716,8.28665 4.41383,7.61998 5.5,7.5 Z"/></g>
<g><path style="opacity:1" fill="#929370" d="M 21.5,19.5 C 21.1667,20.1667 20.8333,20.8333 20.5,21.5C 17.9455,20.612 15.2788,20.2786 12.5,20.5C 12.5,18.8333 12.5,17.1667 12.5,15.5C 14.8568,15.3367 17.1902,15.5034 19.5,16C 20.0848,17.3024 20.7515,18.469 21.5,19.5 Z"/></g>
<g><path style="opacity:0.761" fill="#a2cff8" d="M 5.5,20.5 C 4.44802,20.6495 3.44802,20.4828 2.5,20C 1.26166,19.31 1.26166,18.81 2.5,18.5C 4.22586,18.1854 5.89253,18.0187 7.5,18C 8.15127,19.308 7.4846,20.1414 5.5,20.5 Z"/></g>
<g><path style="opacity:1" fill="#fbfaed" d="M 24.5,18.5 C 28.5178,21.0706 27.8512,22.0706 22.5,21.5C 21.8333,21.5 21.1667,21.5 20.5,21.5C 20.8333,20.8333 21.1667,20.1667 21.5,19.5C 21.8333,19.5 22.1667,19.5 22.5,19.5C 23.1667,19.1667 23.8333,18.8333 24.5,18.5 Z"/></g>
<g><path style="opacity:0.89" fill="#8ca2b4" d="M 24.5,18.5 C 25.9587,18.4326 27.2921,18.7659 28.5,19.5C 29.625,20.3478 29.625,21.3478 28.5,22.5C 26.5,22.5 24.5,22.5 22.5,22.5C 22.5,22.1667 22.5,21.8333 22.5,21.5C 27.8512,22.0706 28.5178,21.0706 24.5,18.5 Z"/></g>
<g><path style="opacity:0.941" fill="#667453" d="M 20.5,21.5 C 21.1667,21.5 21.8333,21.5 22.5,21.5C 22.5,21.8333 22.5,22.1667 22.5,22.5C 20.9522,23.7943 18.9522,24.4609 16.5,24.5C 14.3035,24.4954 12.3035,24.162 10.5,23.5C 14.1817,23.6653 17.8484,23.4986 21.5,23C 20.944,22.6174 20.6107,22.1174 20.5,21.5 Z"/></g>
</svg>
